<svg xmlns="http://www.w3.org/2000/svg" width="22" height="22"><path d="M21.74 3.514c.32.314.32.826 0 1.14l-6.27 6.269a.815.815 0 0 0 0 1.14l6.27 6.272c.32.313.32.826 0 1.139l-2.28 2.278a.811.811 0 0 1-1.14 0l-6.28-6.272a.81.81 0 0 0-1.14 0l-6.27 6.267a.81.81 0 0 1-1.14 0L1.2 19.466a.814.814 0 0 1 0-1.139l6.28-6.268a.797.797 0 0 0 0-1.14L1.21 4.647a.815.815 0 0 1 0-1.14L3.49 1.23a.82.82 0 0 1 1.15.001L10.91 7.5c.31.314.82.314 1.14.001l6.27-6.266a.81.81 0 0 1 1.14 0z" fill="#34495e"/><path d="M21.74 3.514c.32.314.32.826 0 1.14l-6.27 6.269a.815.815 0 0 0 0 1.14l6.27 6.272c.32.313.32.826 0 1.139l-2.28 2.278a.811.811 0 0 1-1.14 0l-6.28-6.272a.81.81 0 0 0-1.14 0l-6.27 6.267a.81.81 0 0 1-1.14 0L1.2 19.466a.814.814 0 0 1 0-1.139l6.28-6.268a.797.797 0 0 0 0-1.14L1.21 4.647a.815.815 0 0 1 0-1.14L3.49 1.23a.82.82 0 0 1 1.15.001L10.91 7.5c.31.314.82.314 1.14.001l6.27-6.266a.81.81 0 0 1 1.14 0z" fill="#d0d0d0"/></svg>